<svg xmlns="http://www.w3.org/2000/svg" viewBox="0 0 753 407" font-weight="normal" text-decoration="none" width="753px" xmlns:xlink="http://www.w3.org/1999/xlink" font-size="15" font-family="sans-serif" font-style="normal" version="1.1" height="407px"><title>Average High and Low Temperature in Trabuco Canyon</title><defs><clipPath id="plot-sample-bounds-3"><rect x="75.8" width="601.4" y="0" height="385"></rect></clipPath><clipPath id="plot-sample-bounds-scaled-3"><rect x="758.2" width="6013.5" y="0" height="3850"></rect></clipPath></defs><g transform="scale(0.1)"><path d="M758,2484l17,-1l16,0l17,1l16,-3l17,2l16,-2l17,-1l16,-2l17,-4l16,-4l16,-7l17,-4l16,-2l17,-3l16,-3l17,2l16,0l17,-2l16,-1l17,-2l16,0l17,0l16,-2l17,0l16,4l17,3l16,-2l17,-1l16,2l17,3l16,1l16,-2l17,-4l16,-2l17,-3l16,-1l17,-1l16,0l17,-1l16,2l17,-1l16,1l17,0l16,-1l17,-3l16,-3l17,-3l16,-3l17,-3l16,0l16,-3l17,-3l16,-4l17,-1l16,-1l17,-5l16,-2l17,-2l16,-2l17,-5l16,-5l17,-4l16,-1l17,-4l16,-1l17,-2l16,-6l17,-2l16,-4l17,-5l16,-5l16,-1l17,-4l16,-2l17,-5l16,2l17,-1l16,-2l17,-4l16,-1l17,-3l16,1l17,0l16,-1l17,-3l16,-2l17,-2l16,-1l17,-1l16,-1l17,-3l16,-3l16,-5l17,-2l16,0l17,-4l16,-3l17,-4l16,-3l17,-4l16,-1l17,-1l16,-4l17,-4l16,-3l17,-3l16,-6l17,-4l16,-7l17,-4l16,-5l16,-5l17,-5l16,-6l17,-4l16,-3l17,-3l16,-5l17,-6l16,-5l17,-6l16,-6l17,-4l16,-5l17,-6l16,-6l17,-6l16,-3l17,-1l16,-3l17,-3l16,-5l16,-2l17,-3l16,-2l17,-3l16,-5l17,-5l16,-3l17,-3l16,-3l17,0l16,-2l17,-3l16,-3l17,-6l16,-7l17,-4l16,-5l17,-6l16,-3l17,-4l16,-4l16,-4l17,-3l16,-3l17,-3l16,-4l17,-6l16,-8l17,-5l16,-6l17,-4l16,-9l17,-7l16,-5l17,-6l16,-5l17,-4l16,-7l17,-5l16,-5l16,-8l17,-7l16,-4l17,-6l16,-4l17,-3l16,-5l17,-4l16,-5l17,-2l16,-3l17,-3l16,-4l17,-3l16,-2l17,-3l16,-1l17,-3l16,1l17,-3l16,-2l16,-1l17,-1l16,-1l17,-1l16,-2l17,0l16,0l17,2l16,3l17,3l16,4l17,3l16,3l17,2l16,1l17,-1l16,2l17,2l16,3l17,-2l16,-1l16,1l17,1l16,1l17,-1l16,1l17,0l16,2l17,-1l16,1l17,1l16,-2l17,0l16,0l17,-1l16,1l17,2l16,0l17,0l16,-2l16,-3l17,-2l16,-4l17,0l16,2l17,1l16,3l17,1l16,2l17,3l16,4l17,4l16,3l17,5l16,2l17,2l16,4l17,5l16,2l17,3l16,2l16,3l17,4l16,5l17,1l16,5l17,5l16,4l17,6l16,3l17,6l16,6l17,6l16,6l17,3l16,4l17,4l16,5l17,3l16,4l17,1l16,5l16,6l17,3l16,2l17,4l16,3l17,1l16,3l17,4l16,4l17,8l16,6l17,7l16,5l17,8l16,5l17,6l16,6l17,7l16,6l16,7l17,3l16,5l17,4l16,6l17,7l16,5l17,7l16,7l17,6l16,7l17,5l16,7l17,7l16,8l17,9l16,10l17,10l16,9l17,6l16,7l16,6l17,5l16,4l17,7l16,7l17,6l16,7l17,8l16,6l17,6l16,5l17,7l16,5l17,7l16,5l17,6l16,6l17,6l16,7l17,7l16,5l16,7l17,2l16,7l17,4l16,4l17,2l16,4l17,5l16,6l17,8l16,5l17,5l16,6l17,3l16,1l17,2l16,2l17,-3l16,0l16,-1l17,2l16,0l17,-1l16,-2l17,-2l16,-3l17,1l16,-3l17,-1l0,-434l-17,3l-16,8l-17,2l-16,4l-17,1l-16,1l-17,1l-16,0l-17,-3l-16,0l-16,1l-17,-2l-16,1l-17,1l-16,-1l-17,1l-16,-3l-17,-4l-16,-1l-17,-3l-16,-6l-17,-2l-16,0l-17,-6l-16,-3l-17,-3l-16,-5l-17,-5l-16,-2l-16,-1l-17,-2l-16,-3l-17,-8l-16,-4l-17,-8l-16,-4l-17,-6l-16,-4l-17,-4l-16,-5l-17,-3l-16,-5l-17,-4l-16,-7l-17,-5l-16,-6l-17,-6l-16,-5l-17,-6l-16,-7l-16,-9l-17,-5l-16,-6l-17,-6l-16,-5l-17,-5l-16,-4l-17,-3l-16,-5l-17,-6l-16,-4l-17,-5l-16,-7l-17,-3l-16,-4l-17,-3l-16,-5l-17,-3l-16,-7l-17,-4l-16,-3l-16,-3l-17,-4l-16,-6l-17,-5l-16,-7l-17,-6l-16,-6l-17,-4l-16,-5l-17,-4l-16,-3l-17,-5l-16,-6l-17,-5l-16,-5l-17,-5l-16,-5l-17,-7l-16,-2l-16,-4l-17,-7l-16,-6l-17,-2l-16,-6l-17,-8l-16,-4l-17,-5l-16,-3l-17,-2l-16,-6l-17,-7l-16,-7l-17,-5l-16,-5l-17,-2l-16,-4l-17,-2l-16,-2l-17,-1l-16,-1l-16,-1l-17,0l-16,1l-17,1l-16,1l-17,-1l-16,1l-17,-2l-16,-2l-17,-6l-16,-2l-17,-1l-16,-2l-17,-2l-16,0l-17,0l-16,1l-17,0l-16,0l-17,-1l-16,1l-16,2l-17,3l-16,1l-17,2l-16,1l-17,3l-16,0l-17,0l-16,0l-17,-4l-16,0l-17,-2l-16,1l-17,-1l-16,-1l-17,-3l-16,0l-17,1l-16,0l-16,3l-17,1l-16,1l-17,1l-16,0l-17,3l-16,1l-17,0l-16,1l-17,-1l-16,1l-17,1l-16,0l-17,-1l-16,1l-17,3l-16,0l-17,0l-16,2l-17,3l-16,1l-16,5l-17,1l-16,4l-17,2l-16,4l-17,4l-16,6l-17,4l-16,6l-17,5l-16,5l-17,5l-16,8l-17,7l-16,6l-17,2l-16,4l-17,4l-16,3l-17,5l-16,3l-16,4l-17,3l-16,4l-17,4l-16,4l-17,5l-16,3l-17,4l-16,5l-17,3l-16,4l-17,5l-16,3l-17,3l-16,3l-17,3l-16,1l-17,2l-16,2l-16,2l-17,1l-16,-1l-17,0l-16,0l-17,1l-16,2l-17,4l-16,3l-17,4l-16,3l-17,3l-16,2l-17,5l-16,3l-17,3l-16,2l-17,3l-16,1l-17,4l-16,3l-16,3l-17,4l-16,4l-17,4l-16,5l-17,3l-16,0l-17,4l-16,5l-17,3l-16,3l-17,3l-16,6l-17,2l-16,4l-17,5l-16,2l-17,3l-16,5l-17,2l-16,3l-16,3l-17,3l-16,4l-17,4l-16,5l-17,2l-16,5l-17,5l-16,3l-17,2l-16,2l-17,2l-16,2l-17,1l-16,1l-17,3l-16,4l-17,1l-16,3l-16,1l-17,3l-16,2l-17,1l-16,2l-17,1l-16,0l-17,3l-16,2l-17,2l-16,2l-17,0l-16,0l-17,3l-16,1l-17,0l-16,1l-17,2l-16,-1l-17,0l-16,2l-16,0l-17,0l-16,1l-17,2l-16,-2l-17,2l-16,-3l-17,-1l-16,2l-17,-2l-16,-1l-17,-2l-16,2l-17,1l-16,2l-17,2l-16,2l-17,-1l-16,-1l-17,-1l-16,2l-16,3l-17,0l-16,1l-17,2l-16,-1l-17,1l-16,0l-17,3l-16,0l-17,0l-16,-1l-17,2l-16,0l-17,4l-16,2l-17,0l-16,5l-17,0l-16,1l-16,-1l-17,2l-16,-2l-17,-1l-16,-1l-17,-2l-16,0l-17,-1l-16,2l-17,3l-16,0l-17,0l-16,1l-17,1l-16,-2l-17,-1l-16,1l-17,0l-16,3l-17,0l-16,2l-16,5l-17,3l-16,0l-17,2l-16,-4l-17,0l-16,2l-17,2l-16,1l-17,-1Z" fill="#4646b9" fill-opacity="0.188" stroke="none"></path><path d="M758,2377l17,1l16,1l17,-1l16,1l17,-2l16,-2l17,-1l16,-1l17,-4l16,-3l16,-3l17,-2l16,-1l17,-2l16,-2l17,1l16,-1l17,1l16,0l17,-1l16,-2l17,0l16,-1l17,0l16,0l17,2l16,-1l17,-4l16,2l17,2l16,-1l16,-3l17,-1l16,-3l17,-2l16,0l17,-2l16,-1l17,0l16,-1l17,0l16,-3l17,0l16,-2l17,-3l16,-1l17,-4l16,-3l17,-4l16,-1l16,-2l17,1l16,-3l17,-2l16,-2l17,-4l16,-3l17,-1l16,-1l17,-6l16,-4l17,-2l16,-1l17,-4l16,-1l17,-2l16,-4l17,-1l16,-2l17,-4l16,-3l16,-3l17,-2l16,-2l17,-2l16,-1l17,-1l16,0l17,-2l16,0l17,-2l16,-3l17,-2l16,-1l17,-2l16,-1l17,-2l16,-1l17,-2l16,-1l17,0l16,-2l16,-3l17,-2l16,-1l17,-2l16,-4l17,-3l16,-4l17,-3l16,-3l17,-3l16,-3l17,-1l16,-6l17,-4l16,-6l17,-6l16,-6l17,-6l16,-4l16,-4l17,-4l16,-5l17,-3l16,-3l17,-3l16,-4l17,-5l16,-5l17,-5l16,-7l17,-5l16,-5l17,-5l16,-6l17,-6l16,-4l17,-3l16,-3l17,-4l16,-3l16,-4l17,-3l16,-4l17,-2l16,-3l17,-4l16,-3l17,-4l16,-2l17,-2l16,-3l17,-5l16,-5l17,-5l16,-5l17,-5l16,-3l17,-5l16,-4l17,-4l16,-1l16,-3l17,-3l16,-4l17,-3l16,-3l17,-4l16,-5l17,-4l16,-4l17,-4l16,-3l17,-4l16,-5l17,-6l16,-6l17,-4l16,-5l17,-4l16,-3l16,-7l17,-5l16,0l17,-3l16,-4l17,-3l16,-5l17,-4l16,-4l17,-3l16,-3l17,-4l16,-3l17,-3l16,-3l17,-2l16,-4l17,-1l16,-3l17,-3l16,-2l16,-3l17,-1l16,-2l17,-1l16,-2l17,0l16,1l17,1l16,2l17,2l16,2l17,-1l16,-1l17,0l16,0l17,0l16,1l17,0l16,1l17,1l16,0l16,0l17,-1l16,1l17,0l16,2l17,1l16,0l17,0l16,0l17,-1l16,0l17,-2l16,1l17,0l16,0l17,0l16,0l17,-1l16,-2l16,-2l17,-1l16,0l17,1l16,2l17,2l16,2l17,1l16,3l17,3l16,2l17,4l16,5l17,2l16,2l17,3l16,1l17,4l16,2l17,4l16,2l16,2l17,3l16,4l17,2l16,4l17,5l16,5l17,3l16,5l17,5l16,7l17,4l16,5l17,2l16,6l17,3l16,4l17,2l16,3l17,3l16,6l16,4l17,2l16,3l17,4l16,4l17,4l16,2l17,5l16,6l17,5l16,7l17,6l16,5l17,7l16,7l17,6l16,5l17,8l16,5l16,5l17,3l16,6l17,4l16,8l17,4l16,6l17,7l16,6l17,7l16,6l17,5l16,5l17,6l16,7l17,9l16,8l17,9l16,8l17,7l16,7l16,7l17,7l16,6l17,8l16,7l17,6l16,6l17,8l16,6l17,6l16,6l17,7l16,5l17,7l16,5l17,5l16,7l17,4l16,7l17,5l16,4l16,3l17,5l16,5l17,5l16,4l17,3l16,4l17,4l16,4l17,5l16,2l17,5l16,2l17,2l16,1l17,1l16,1l17,-2l16,-2l16,0l17,0l16,0l17,-1l16,0l17,-2l16,-2l17,0l16,0l17,-2l0,-204l-17,0l-16,3l-17,3l-16,2l-17,1l-16,-1l-17,1l-16,-1l-17,-2l-16,-1l-16,1l-17,-1l-16,-1l-17,-1l-16,-2l-17,0l-16,-3l-17,-2l-16,-4l-17,-3l-16,-7l-17,-5l-16,-2l-17,-4l-16,-3l-17,-3l-16,-6l-17,-6l-16,0l-16,-5l-17,-3l-16,-4l-17,-8l-16,-6l-17,-8l-16,-5l-17,-6l-16,-6l-17,-5l-16,-5l-17,-3l-16,-5l-17,-4l-16,-5l-17,-6l-16,-6l-17,-7l-16,-5l-17,-6l-16,-6l-16,-6l-17,-4l-16,-7l-17,-6l-16,-7l-17,-8l-16,-6l-17,-5l-16,-6l-17,-6l-16,-5l-17,-5l-16,-6l-17,-4l-16,-4l-17,-3l-16,-5l-17,-3l-16,-6l-17,-4l-16,-4l-16,-4l-17,-6l-16,-4l-17,-6l-16,-6l-17,-4l-16,-5l-17,-6l-16,-5l-17,-4l-16,-6l-17,-4l-16,-4l-17,-4l-16,-5l-17,-2l-16,-4l-17,-5l-16,-2l-16,-4l-17,-3l-16,-4l-17,-3l-16,-3l-17,-4l-16,-2l-17,-3l-16,-4l-17,-4l-16,-4l-17,-6l-16,-5l-17,-4l-16,-4l-17,-4l-16,-3l-17,-3l-16,-1l-17,-2l-16,-3l-16,-4l-17,-2l-16,-2l-17,-1l-16,-1l-17,0l-16,-1l-17,-2l-16,-2l-17,-3l-16,-4l-17,-2l-16,-3l-17,0l-16,-4l-17,-2l-16,-2l-17,-2l-16,0l-17,1l-16,-1l-16,1l-17,1l-16,2l-17,0l-16,0l-17,1l-16,0l-17,0l-16,-1l-17,0l-16,0l-17,1l-16,0l-17,-1l-16,-1l-17,-4l-16,-1l-17,-1l-16,0l-16,1l-17,1l-16,0l-17,0l-16,-1l-17,3l-16,1l-17,1l-16,1l-17,-1l-16,-1l-17,2l-16,0l-17,1l-16,0l-17,1l-16,1l-17,2l-16,1l-17,2l-16,4l-16,2l-17,4l-16,2l-17,3l-16,5l-17,5l-16,5l-17,4l-16,6l-17,4l-16,5l-17,5l-16,4l-17,6l-16,5l-17,3l-16,3l-17,4l-16,3l-17,4l-16,4l-16,3l-17,4l-16,3l-17,3l-16,4l-17,6l-16,3l-17,3l-16,6l-17,2l-16,3l-17,3l-16,3l-17,3l-16,1l-17,3l-16,1l-17,4l-16,2l-16,2l-17,1l-16,2l-17,2l-16,1l-17,3l-16,2l-17,3l-16,3l-17,4l-16,3l-17,3l-16,3l-17,3l-16,3l-17,3l-16,3l-17,1l-16,2l-17,3l-16,0l-16,4l-17,4l-16,4l-17,4l-16,3l-17,3l-16,2l-17,4l-16,4l-17,3l-16,4l-17,6l-16,3l-17,4l-16,5l-17,3l-16,4l-17,3l-16,5l-17,3l-16,3l-16,3l-17,4l-16,3l-17,4l-16,5l-17,3l-16,6l-17,3l-16,5l-17,4l-16,3l-17,3l-16,3l-17,3l-16,3l-17,3l-16,3l-17,0l-16,2l-16,1l-17,2l-16,1l-17,3l-16,0l-17,2l-16,0l-17,2l-16,3l-17,2l-16,2l-17,1l-16,-1l-17,2l-16,2l-17,2l-16,0l-17,1l-16,2l-17,1l-16,1l-16,3l-17,1l-16,1l-17,0l-16,3l-17,0l-16,2l-17,2l-16,2l-17,0l-16,2l-17,-1l-16,1l-17,0l-16,1l-17,2l-16,3l-17,1l-16,0l-17,0l-16,0l-16,4l-17,4l-16,1l-17,3l-16,0l-17,0l-16,3l-17,0l-16,0l-17,0l-16,-1l-17,1l-16,2l-17,3l-16,0l-17,0l-16,1l-17,0l-16,2l-16,3l-17,1l-16,3l-17,-1l-16,1l-17,1l-16,-1l-17,1l-16,4l-17,2l-16,-1l-17,0l-16,0l-17,0l-16,0l-17,1l-16,1l-17,3l-16,1l-17,1l-16,4l-16,5l-17,4l-16,-1l-17,3l-16,0l-17,0l-16,3l-17,2l-16,-1l-17,2Z" fill="#4646b9" fill-opacity="0.188" stroke="none"></path><g clip-path="url(#plot-sample-bounds-scaled-3)"><path stroke-opacity="1.0" d="M758,2277l17,-1l16,1l17,-2l16,-2l17,-1l16,-1l17,-1l16,0l17,-4l16,-4l16,-4l17,-1l16,-1l17,-3l16,-2l17,0l16,0l17,0l16,0l17,-1l16,0l17,-2l16,-2l17,-1l16,1l17,1l16,-1l17,0l16,-1l17,0l16,-1l16,-2l17,-1l16,-2l17,-2l16,0l17,-2l16,-1l17,-1l16,0l17,0l16,-1l17,-1l16,-2l17,-2l16,-1l17,-3l16,-2l17,-2l16,-3l16,-1l17,-1l16,-1l17,-1l16,-2l17,-3l16,-2l17,-1l16,-2l17,-2l16,-1l17,-1l16,-2l17,-3l16,0l17,-2l16,-3l17,-1l16,-2l17,-3l16,-3l16,-1l17,-2l16,-1l17,-3l16,0l17,-1l16,-2l17,-2l16,-1l17,-1l16,-3l17,-1l16,-1l17,-2l16,-2l17,-2l16,-1l17,-1l16,-1l17,-1l16,-2l16,-2l17,-2l16,-3l17,-3l16,-2l17,-3l16,-3l17,-3l16,-2l17,-4l16,-4l17,-4l16,-4l17,-4l16,-4l17,-5l16,-5l17,-4l16,-4l16,-3l17,-3l16,-5l17,-3l16,-4l17,-3l16,-4l17,-5l16,-5l17,-4l16,-6l17,-4l16,-4l17,-5l16,-3l17,-4l16,-4l17,-3l16,-4l17,-4l16,-3l16,-3l17,-2l16,-2l17,-2l16,-4l17,-3l16,-4l17,-3l16,-2l17,-3l16,-3l17,-3l16,-4l17,-5l16,-4l17,-3l16,-2l17,-3l16,-3l17,-3l16,-2l16,-4l17,-2l16,-3l17,-3l16,-3l17,-4l16,-3l17,-4l16,-4l17,-4l16,-4l17,-5l16,-5l17,-5l16,-5l17,-4l16,-4l17,-4l16,-4l16,-5l17,-5l16,-3l17,-4l16,-3l17,-3l16,-5l17,-6l16,-4l17,-4l16,-4l17,-4l16,-3l17,-4l16,-4l17,-4l16,-3l17,-3l16,-2l17,-3l16,-2l16,-3l17,-1l16,-2l17,-2l16,-1l17,0l16,0l17,0l16,0l17,0l16,2l17,1l16,-1l17,0l16,0l17,-1l16,1l17,0l16,1l17,-1l16,-1l16,0l17,0l16,1l17,1l16,1l17,2l16,0l17,-1l16,0l17,1l16,0l17,0l16,0l17,-1l16,0l17,0l16,-1l17,-1l16,-1l16,-1l17,-1l16,0l17,0l16,2l17,1l16,3l17,1l16,2l17,3l16,2l17,4l16,3l17,2l16,2l17,1l16,2l17,1l16,2l17,3l16,3l16,2l17,2l16,3l17,3l16,3l17,4l16,5l17,5l16,5l17,5l16,5l17,4l16,5l17,3l16,4l17,4l16,4l17,3l16,3l17,4l16,5l16,3l17,5l16,3l17,3l16,4l17,3l16,4l17,4l16,5l17,5l16,6l17,6l16,6l17,6l16,6l17,6l16,5l17,6l16,5l16,4l17,4l16,6l17,4l16,6l17,5l16,5l17,5l16,7l17,6l16,6l17,5l16,6l17,6l16,6l17,9l16,7l17,7l16,8l17,6l16,7l16,7l17,6l16,5l17,7l16,6l17,6l16,6l17,6l16,5l17,5l16,5l17,6l16,5l17,6l16,5l17,7l16,5l17,7l16,5l17,4l16,4l16,4l17,4l16,5l17,5l16,4l17,3l16,3l17,5l16,6l17,4l16,2l17,4l16,3l17,2l16,2l17,1l16,0l17,0l16,-1l16,0l17,1l16,1l17,0l16,0l17,-1l16,-3l17,-2l16,-2l17,-1" stroke-width="20" fill="none" stroke="#4646b9"></path></g><path d="M758,1942l17,0l16,0l17,-2l16,-2l17,1l16,1l17,0l16,-3l17,-1l16,-2l16,-3l17,0l16,1l17,-3l16,-2l17,0l16,0l17,0l16,-3l17,-2l16,-2l17,-2l16,0l17,1l16,4l17,0l16,-5l17,0l16,0l17,0l16,-2l16,-1l17,-1l16,3l17,2l16,-2l17,-3l16,1l17,1l16,2l17,1l16,1l17,-1l16,-4l17,-1l16,-1l17,-2l16,-4l17,-2l16,1l16,-1l17,0l16,1l17,1l16,-3l17,-4l16,-3l17,-1l16,1l17,-4l16,-3l17,-3l16,-1l17,-3l16,-4l17,-4l16,-2l17,-2l16,-3l17,-3l16,-2l16,-4l17,-4l16,-3l17,-2l16,-2l17,-3l16,0l17,-1l16,-2l17,-4l16,-2l17,-3l16,-5l17,-7l16,-1l17,-3l16,-4l17,-3l16,-6l17,-3l16,-2l16,-2l17,-4l16,-1l17,-1l16,-1l17,-4l16,-3l17,-4l16,-3l17,-6l16,-4l17,-3l16,-5l17,-3l16,-5l17,-4l16,-5l17,-2l16,-3l16,0l17,-2l16,-5l17,-2l16,-3l17,-3l16,-3l17,0l16,-5l17,-4l16,-5l17,-5l16,-5l17,-3l16,-5l17,-5l16,-5l17,-2l16,-1l17,-2l16,-3l16,-4l17,-2l16,-4l17,-3l16,-5l17,-1l16,-5l17,-2l16,-4l17,-6l16,-6l17,-3l16,-3l17,-4l16,-3l17,-6l16,-4l17,-7l16,-3l17,-5l16,-5l16,-4l17,-2l16,-3l17,-7l16,-5l17,-5l16,-8l17,-8l16,-8l17,-6l16,-7l17,-5l16,-5l17,-5l16,-5l17,-5l16,-5l17,-6l16,-8l16,-6l17,-7l16,-7l17,-6l16,-5l17,-7l16,-6l17,-5l16,-3l17,-4l16,-5l17,-3l16,-3l17,-3l16,-7l17,-3l16,-5l17,-3l16,-4l17,-1l16,-2l16,-3l17,-2l16,-5l17,-4l16,-4l17,-3l16,-5l17,-2l16,-1l17,0l16,-3l17,-1l16,0l17,-1l16,-2l17,1l16,3l17,-1l16,0l17,-1l16,-1l16,0l17,-1l16,-2l17,0l16,-1l17,0l16,0l17,-2l16,-2l17,-2l16,0l17,-2l16,0l17,0l16,0l17,1l16,0l17,1l16,0l16,0l17,2l16,4l17,2l16,2l17,2l16,5l17,1l16,3l17,6l16,3l17,6l16,4l17,3l16,3l17,7l16,7l17,2l16,4l17,6l16,6l16,6l17,6l16,7l17,6l16,7l17,8l16,6l17,9l16,6l17,6l16,6l17,6l16,2l17,4l16,6l17,6l16,3l17,5l16,6l17,4l16,3l16,3l17,2l16,4l17,7l16,3l17,2l16,6l17,6l16,6l17,6l16,6l17,6l16,8l17,8l16,2l17,4l16,6l17,5l16,4l16,6l17,7l16,6l17,9l16,7l17,5l16,3l17,4l16,3l17,4l16,6l17,5l16,7l17,6l16,5l17,6l16,7l17,7l16,6l17,7l16,6l16,7l17,5l16,5l17,2l16,3l17,6l16,6l17,6l16,6l17,5l16,8l17,3l16,3l17,3l16,0l17,5l16,4l17,8l16,6l17,7l16,3l16,7l17,5l16,6l17,5l16,4l17,3l16,3l17,5l16,4l17,3l16,3l17,3l16,6l17,5l16,3l17,6l16,3l17,2l16,0l16,2l17,0l16,3l17,2l16,-1l17,3l16,5l17,1l16,2l17,-1l0,-581l-17,0l-16,3l-17,7l-16,8l-17,5l-16,3l-17,2l-16,1l-17,-3l-16,-3l-16,1l-17,3l-16,4l-17,0l-16,-4l-17,3l-16,-6l-17,0l-16,-4l-17,-1l-16,-7l-17,-6l-16,-1l-17,-1l-16,-5l-17,-8l-16,-7l-17,-8l-16,-5l-16,2l-17,-3l-16,-7l-17,-5l-16,-10l-17,-9l-16,-9l-17,-12l-16,-8l-17,-6l-16,-3l-17,-5l-16,-10l-17,-7l-16,-8l-17,-9l-16,-7l-17,-12l-16,-5l-17,-5l-16,-7l-16,-8l-17,-10l-16,-8l-17,-11l-16,-9l-17,-7l-16,-8l-17,-2l-16,-3l-17,-7l-16,-12l-17,-7l-16,-1l-17,-5l-16,-5l-17,-6l-16,-8l-17,-6l-16,-12l-17,-10l-16,-4l-16,-4l-17,-5l-16,-6l-17,-9l-16,-8l-17,-7l-16,-5l-17,-7l-16,-13l-17,-7l-16,-6l-17,-3l-16,-5l-17,-5l-16,-2l-17,-1l-16,0l-17,-1l-16,-3l-16,-4l-17,-1l-16,2l-17,-4l-16,-2l-17,-4l-16,-1l-17,-4l-16,2l-17,3l-16,-2l-17,-12l-16,-5l-17,-1l-16,-5l-17,-1l-16,-2l-17,2l-16,-3l-17,-2l-16,2l-16,0l-17,1l-16,1l-17,4l-16,4l-17,3l-16,-2l-17,-3l-16,-2l-17,0l-16,3l-17,-5l-16,-3l-17,-3l-16,-3l-17,0l-16,0l-17,6l-16,-1l-17,2l-16,6l-16,5l-17,2l-16,6l-17,5l-16,6l-17,8l-16,4l-17,6l-16,7l-17,4l-16,1l-17,2l-16,1l-17,2l-16,2l-17,-2l-16,0l-17,0l-16,0l-16,3l-17,1l-16,3l-17,4l-16,1l-17,3l-16,1l-17,-1l-16,0l-17,5l-16,4l-17,1l-16,6l-17,2l-16,1l-17,-1l-16,0l-17,0l-16,0l-17,0l-16,0l-16,-3l-17,2l-16,0l-17,-1l-16,1l-17,0l-16,3l-17,3l-16,3l-17,3l-16,1l-17,6l-16,5l-17,3l-16,9l-17,9l-16,10l-17,9l-16,5l-17,3l-16,3l-16,5l-17,2l-16,-1l-17,4l-16,5l-17,5l-16,7l-17,5l-16,2l-17,2l-16,11l-17,9l-16,9l-17,11l-16,6l-17,4l-16,2l-17,5l-16,6l-16,5l-17,-2l-16,2l-17,1l-16,0l-17,-5l-16,-7l-17,-4l-16,1l-17,-2l-16,-1l-17,-3l-16,0l-17,-2l-16,2l-17,-6l-16,0l-17,0l-16,-5l-17,-6l-16,-2l-16,-1l-17,-4l-16,-1l-17,-6l-16,-2l-17,-2l-16,-2l-17,-2l-16,-3l-17,-1l-16,0l-17,5l-16,-1l-17,0l-16,2l-17,5l-16,7l-17,1l-16,-1l-17,5l-16,-1l-16,2l-17,2l-16,8l-17,4l-16,11l-17,5l-16,-1l-17,7l-16,12l-17,7l-16,8l-17,5l-16,3l-17,7l-16,2l-17,4l-16,2l-17,4l-16,6l-16,4l-17,0l-16,5l-17,7l-16,8l-17,6l-16,1l-17,-1l-16,1l-17,1l-16,5l-17,10l-16,2l-17,1l-16,3l-17,6l-16,2l-17,3l-16,7l-17,2l-16,-4l-16,-1l-17,-1l-16,-2l-17,2l-16,-6l-17,0l-16,1l-17,6l-16,7l-17,-1l-16,-1l-17,0l-16,-3l-17,-3l-16,-6l-17,0l-16,0l-17,2l-16,3l-17,4l-16,0l-16,-5l-17,3l-16,1l-17,1l-16,1l-17,-3l-16,-1l-17,0l-16,0l-17,2l-16,4l-17,3l-16,6l-17,6l-16,8l-17,3l-16,-1l-17,-2l-16,-4l-16,3l-17,2l-16,2l-17,2l-16,-1l-17,0l-16,1l-17,2l-16,3l-17,2l-16,0l-17,-1l-16,2l-17,-2l-16,0l-17,1l-16,-5l-17,6l-16,3l-17,1l-16,2l-16,6l-17,6l-16,0l-17,-4l-16,-3l-17,1l-16,0l-17,2l-16,3l-17,2Z" fill="#ba4545" fill-opacity="0.188" stroke="none"></path><path d="M758,1835l17,-1l16,-3l17,-1l16,-2l17,0l16,-1l17,-1l16,-1l17,-1l16,-1l16,-1l17,-1l16,-2l17,0l16,-3l17,-1l16,-1l17,-2l16,0l17,-1l16,-3l17,0l16,0l17,2l16,0l17,1l16,2l17,2l16,-1l17,-2l16,0l16,-2l17,0l16,0l17,0l16,1l17,-1l16,0l17,1l16,1l17,0l16,1l17,-2l16,0l17,0l16,-1l17,1l16,0l17,1l16,0l16,0l17,-1l16,-2l17,-4l16,-4l17,-4l16,-2l17,-1l16,-3l17,-1l16,-3l17,-2l16,-1l17,-3l16,-3l17,-3l16,-4l17,-2l16,-1l17,-2l16,-2l16,-1l17,-5l16,-5l17,-3l16,-4l17,-1l16,-2l17,-3l16,-4l17,-4l16,-4l17,-4l16,-3l17,-5l16,-3l17,-5l16,-6l17,-4l16,-2l17,-4l16,-1l16,-4l17,-2l16,-3l17,-2l16,-2l17,-2l16,-2l17,-3l16,-5l17,-4l16,-4l17,-2l16,-3l17,-5l16,-6l17,-6l16,-4l17,-1l16,-1l16,-3l17,-1l16,-2l17,0l16,-1l17,-3l16,0l17,0l16,-2l17,-5l16,-2l17,-5l16,-3l17,-4l16,-1l17,-3l16,-4l17,-3l16,-2l17,-2l16,-2l16,-3l17,-4l16,-2l17,-4l16,-2l17,-2l16,-2l17,-4l16,-6l17,-3l16,-4l17,-5l16,-3l17,-4l16,-4l17,-3l16,-4l17,-6l16,-5l17,-3l16,-5l16,-5l17,-4l16,-3l17,-6l16,-5l17,-6l16,-6l17,-7l16,-7l17,-6l16,-6l17,-6l16,-7l17,-6l16,-4l17,-4l16,-5l17,-6l16,-5l16,-6l17,-6l16,-6l17,-6l16,-7l17,-5l16,-6l17,-5l16,-5l17,-4l16,-4l17,-4l16,-1l17,-4l16,-5l17,-4l16,-4l17,-4l16,-4l17,-4l16,-3l16,-3l17,-1l16,-2l17,-3l16,-2l17,-4l16,-6l17,-4l16,-1l17,-1l16,-2l17,-3l16,-1l17,-3l16,-1l17,-1l16,0l17,2l16,-1l17,0l16,-1l16,0l17,-2l16,-1l17,-1l16,0l17,-2l16,-2l17,-3l16,-2l17,-2l16,-2l17,-3l16,-1l17,0l16,-2l17,0l16,1l17,1l16,-1l16,-2l17,3l16,3l17,4l16,4l17,3l16,5l17,2l16,4l17,1l16,3l17,4l16,4l17,4l16,3l17,3l16,3l17,4l16,4l17,5l16,6l16,5l17,6l16,4l17,5l16,5l17,7l16,5l17,8l16,7l17,7l16,7l17,5l16,2l17,4l16,4l17,6l16,2l17,6l16,3l17,6l16,3l16,2l17,4l16,6l17,6l16,4l17,5l16,7l17,7l16,8l17,6l16,7l17,6l16,10l17,7l16,6l17,5l16,7l17,4l16,4l16,5l17,7l16,6l17,7l16,8l17,4l16,5l17,4l16,1l17,6l16,5l17,6l16,6l17,7l16,5l17,6l16,6l17,6l16,6l17,5l16,6l16,7l17,5l16,6l17,4l16,6l17,4l16,8l17,4l16,5l17,6l16,6l17,2l16,4l17,3l16,3l17,5l16,5l17,7l16,8l17,6l16,4l16,7l17,7l16,6l17,4l16,5l17,4l16,2l17,3l16,4l17,3l16,4l17,4l16,3l17,6l16,0l17,4l16,1l17,3l16,2l16,4l17,0l16,3l17,2l16,1l17,0l16,-1l17,-1l16,-1l17,1l0,-310l-17,2l-16,6l-17,5l-16,3l-17,5l-16,2l-17,4l-16,0l-17,-1l-16,-2l-16,3l-17,-1l-16,-1l-17,2l-16,0l-17,-6l-16,0l-17,-2l-16,-3l-17,-3l-16,-7l-17,-5l-16,-4l-17,-1l-16,-2l-17,-4l-16,-8l-17,-9l-16,-5l-16,-1l-17,-4l-16,-6l-17,-5l-16,-8l-17,-10l-16,-9l-17,-6l-16,-7l-17,-7l-16,-5l-17,-4l-16,-7l-17,-7l-16,-9l-17,-9l-16,-9l-17,-7l-16,-8l-17,-6l-16,-4l-16,-8l-17,-7l-16,-7l-17,-9l-16,-10l-17,-11l-16,-7l-17,-2l-16,-2l-17,-6l-16,-8l-17,-5l-16,-6l-17,-7l-16,-7l-17,-4l-16,-6l-17,-10l-16,-10l-17,-8l-16,-7l-16,-6l-17,-6l-16,0l-17,-1l-16,-8l-17,-9l-16,-9l-17,-6l-16,-9l-17,-7l-16,-5l-17,-5l-16,-6l-17,-4l-16,-3l-17,-1l-16,-3l-17,-4l-16,-4l-16,-5l-17,-3l-16,-3l-17,-2l-16,-3l-17,-1l-16,-2l-17,-4l-16,-1l-17,-2l-16,-3l-17,-6l-16,-6l-17,-7l-16,-7l-17,-6l-16,-1l-17,2l-16,-1l-17,-5l-16,-1l-16,-3l-17,-2l-16,2l-17,2l-16,2l-17,0l-16,1l-17,-2l-16,-1l-17,-1l-16,-4l-17,-3l-16,-3l-17,-2l-16,-4l-17,-4l-16,-2l-17,0l-16,1l-17,1l-16,4l-16,4l-17,4l-16,4l-17,3l-16,4l-17,3l-16,2l-17,5l-16,5l-17,4l-16,2l-17,2l-16,2l-17,3l-16,-1l-17,2l-16,-2l-17,-3l-16,-1l-16,1l-17,3l-16,2l-17,3l-16,2l-17,3l-16,3l-17,2l-16,2l-17,3l-16,3l-17,2l-16,0l-17,2l-16,-1l-17,0l-16,0l-17,1l-16,1l-17,0l-16,-1l-16,1l-17,4l-16,4l-17,3l-16,2l-17,4l-16,2l-17,6l-16,6l-17,4l-16,5l-17,4l-16,4l-17,5l-16,6l-17,8l-16,7l-17,7l-16,3l-17,6l-16,5l-16,7l-17,5l-16,3l-17,5l-16,6l-17,7l-16,5l-17,6l-16,6l-17,11l-16,9l-17,9l-16,7l-17,5l-16,3l-17,4l-16,4l-17,1l-16,4l-16,4l-17,4l-16,5l-17,4l-16,0l-17,2l-16,1l-17,1l-16,3l-17,4l-16,-1l-17,-1l-16,0l-17,4l-16,2l-17,0l-16,1l-17,2l-16,3l-17,0l-16,-1l-16,-5l-17,-1l-16,-3l-17,-1l-16,0l-17,-1l-16,-1l-17,-2l-16,1l-17,-1l-16,2l-17,0l-16,-2l-17,2l-16,1l-17,3l-16,3l-17,1l-16,-1l-17,1l-16,3l-16,2l-17,3l-16,3l-17,4l-16,6l-17,4l-16,1l-17,1l-16,5l-17,7l-16,8l-17,6l-16,2l-17,3l-16,6l-17,5l-16,3l-17,5l-16,4l-16,3l-17,5l-16,5l-17,3l-16,5l-17,6l-16,0l-17,0l-16,0l-17,3l-16,3l-17,4l-16,6l-17,3l-16,3l-17,4l-16,4l-17,6l-16,4l-17,5l-16,0l-16,3l-17,0l-16,-2l-17,1l-16,0l-17,1l-16,3l-17,6l-16,5l-17,4l-16,0l-17,-1l-16,0l-17,-2l-16,-3l-17,2l-16,3l-17,2l-16,4l-17,1l-16,-2l-16,-2l-17,-1l-16,0l-17,0l-16,0l-17,-1l-16,-2l-17,1l-16,-1l-17,0l-16,-5l-17,-2l-16,3l-17,2l-16,4l-17,0l-16,0l-17,-7l-16,-2l-16,1l-17,2l-16,-3l-17,-2l-16,4l-17,1l-16,-3l-17,-1l-16,1l-17,1l-16,2l-17,1l-16,1l-17,1l-16,-3l-17,0l-16,4l-17,-3l-16,1l-17,-1l-16,3l-16,4l-17,5l-16,4l-17,-3l-16,0l-17,0l-16,1l-17,2l-16,5l-17,1Z" fill="#ba4545" fill-opacity="0.188" stroke="none"></path><g clip-path="url(#plot-sample-bounds-scaled-3)"><path stroke-opacity="1.0" d="M758,1676l17,-2l16,-2l17,-2l16,-1l17,-1l16,0l17,0l16,0l17,-4l16,-2l16,-1l17,-2l16,-1l17,-1l16,-2l17,0l16,0l17,-1l16,-2l17,-1l16,-1l17,0l16,-1l17,0l16,1l17,1l16,-1l17,0l16,0l17,0l16,-1l16,0l17,1l16,0l17,0l16,-3l17,-2l16,-1l17,0l16,2l17,-1l16,0l17,-1l16,1l17,1l16,0l17,0l16,-1l17,0l16,2l16,0l17,-2l16,-2l17,-4l16,-3l17,-3l16,-1l17,0l16,0l17,0l16,-2l17,-3l16,-2l17,-4l16,-3l17,-3l16,0l17,-2l16,0l17,-1l16,-2l16,-1l17,-4l16,-5l17,-4l16,-3l17,-4l16,-3l17,-3l16,-4l17,-4l16,-4l17,-1l16,-2l17,-1l16,-2l17,-4l16,-5l17,-3l16,-3l17,-3l16,-4l16,-2l17,-4l16,-3l17,-3l16,-2l17,-3l16,-3l17,-4l16,-5l17,-6l16,-4l17,-3l16,-2l17,-4l16,-6l17,-6l16,-3l17,-3l16,-2l16,-2l17,-2l16,-2l17,-1l16,-4l17,-3l16,-1l17,-1l16,-2l17,-3l16,-3l17,-1l16,-2l17,-1l16,0l17,-2l16,-1l17,-1l16,0l17,0l16,0l16,-1l17,-3l16,-1l17,-3l16,-2l17,-1l16,0l17,-3l16,-2l17,-1l16,-3l17,-3l16,-1l17,-2l16,-2l17,-1l16,-3l17,-3l16,-5l17,-3l16,-4l16,-5l17,-3l16,-4l17,-5l16,-5l17,-6l16,-8l17,-8l16,-9l17,-7l16,-5l17,-6l16,-6l17,-6l16,-5l17,-5l16,-4l17,-5l16,-5l16,-6l17,-5l16,-6l17,-6l16,-8l17,-7l16,-6l17,-5l16,-5l17,-4l16,-3l17,-4l16,-4l17,-5l16,-4l17,-3l16,-3l17,-2l16,-4l17,-2l16,-1l16,-2l17,-1l16,-1l17,-1l16,-2l17,-2l16,-2l17,-3l16,-3l17,0l16,-3l17,-3l16,-1l17,-2l16,-2l17,-1l16,0l17,0l16,-1l17,-1l16,-2l16,0l17,1l16,0l17,-1l16,0l17,-2l16,-2l17,-2l16,-2l17,-4l16,-3l17,-3l16,-2l17,-2l16,-3l17,-1l16,-2l17,-2l16,-2l16,-2l17,-1l16,2l17,1l16,2l17,3l16,3l17,3l16,1l17,3l16,3l17,3l16,2l17,1l16,3l17,2l16,1l17,1l16,2l17,3l16,5l16,3l17,4l16,3l17,2l16,4l17,5l16,6l17,7l16,6l17,7l16,4l17,4l16,2l17,4l16,3l17,4l16,3l17,4l16,5l17,3l16,3l16,4l17,4l16,4l17,3l16,3l17,5l16,6l17,6l16,6l17,6l16,8l17,7l16,9l17,7l16,6l17,5l16,4l17,4l16,5l16,6l17,8l16,8l17,8l16,6l17,6l16,5l17,5l16,2l17,6l16,6l17,6l16,5l17,5l16,6l17,7l16,8l17,9l16,7l17,6l16,7l16,6l17,6l16,6l17,6l16,6l17,7l16,8l17,6l16,7l17,6l16,4l17,5l16,6l17,6l16,5l17,7l16,6l17,6l16,7l17,5l16,4l16,5l17,8l16,7l17,6l16,3l17,3l16,1l17,4l16,5l17,4l16,5l17,2l16,3l17,4l16,2l17,1l16,1l17,2l16,-1l16,2l17,1l16,1l17,0l16,-1l17,-2l16,-2l17,-2l16,-3l17,-1" stroke-width="20" fill="none" stroke="#ba4545"></path></g><g clip-path="url(#plot-sample-bounds-scaled-3)"><path stroke-opacity="1.0" d="M758,2374l17,0l16,1l17,-3l16,-1l17,-2l16,-1l17,-3l16,-1l17,-6l16,-5l16,-5l17,-2l16,-2l17,-3l16,-3l17,0l16,-1l17,0l16,-1l17,-1l16,-1l17,-1l16,-3l17,-1l16,1l17,0l16,0l17,-2l16,0l17,-1l16,-2l16,-4l17,-1l16,-3l17,-3l16,0l17,-3l16,-1l17,-2l16,0l17,-1l16,-1l17,-1l16,-3l17,-4l16,-1l17,-4l16,-3l17,-4l16,-4l16,-2l17,-1l16,-2l17,-2l16,-3l17,-5l16,-2l17,-3l16,-2l17,-3l16,-2l17,-1l16,-3l17,-4l16,0l17,-3l16,-4l17,-2l16,-3l17,-4l16,-3l16,-2l17,-2l16,-3l17,-3l16,0l17,-2l16,-2l17,-3l16,-1l17,-2l16,-3l17,-2l16,-2l17,-2l16,-3l17,-2l16,-1l17,-2l16,-1l17,-2l16,-3l16,-3l17,-2l16,-3l17,-3l16,-4l17,-4l16,-3l17,-4l16,-4l17,-5l16,-5l17,-4l16,-5l17,-4l16,-6l17,-6l16,-5l17,-6l16,-4l16,-4l17,-4l16,-5l17,-4l16,-4l17,-3l16,-6l17,-5l16,-5l17,-6l16,-6l17,-5l16,-5l17,-5l16,-5l17,-4l16,-4l17,-4l16,-4l17,-4l16,-4l16,-2l17,-2l16,-3l17,-3l16,-3l17,-4l16,-4l17,-3l16,-3l17,-2l16,-3l17,-4l16,-4l17,-5l16,-5l17,-3l16,-2l17,-3l16,-3l17,-3l16,-3l16,-3l17,-3l16,-3l17,-3l16,-3l17,-3l16,-5l17,-4l16,-4l17,-4l16,-4l17,-5l16,-5l17,-5l16,-5l17,-5l16,-4l17,-4l16,-4l16,-6l17,-5l16,-3l17,-4l16,-3l17,-3l16,-5l17,-6l16,-5l17,-4l16,-4l17,-5l16,-3l17,-4l16,-4l17,-4l16,-3l17,-3l16,-2l17,-3l16,-3l16,-2l17,-2l16,-2l17,-2l16,0l17,-2l16,1l17,0l16,0l17,0l16,1l17,1l16,0l17,0l16,0l17,-1l16,1l17,0l16,1l17,-1l16,-1l16,0l17,0l16,1l17,1l16,2l17,1l16,0l17,0l16,0l17,1l16,0l17,0l16,0l17,0l16,0l17,-1l16,-1l17,-1l16,0l16,-1l17,-1l16,0l17,1l16,1l17,2l16,2l17,2l16,2l17,3l16,2l17,4l16,3l17,3l16,2l17,1l16,1l17,2l16,2l17,3l16,3l16,2l17,3l16,3l17,2l16,4l17,4l16,5l17,5l16,5l17,6l16,5l17,4l16,5l17,3l16,4l17,5l16,4l17,3l16,3l17,4l16,5l16,4l17,5l16,3l17,3l16,5l17,3l16,4l17,4l16,5l17,6l16,6l17,7l16,5l17,7l16,7l17,6l16,6l17,7l16,5l16,5l17,4l16,6l17,5l16,7l17,6l16,6l17,6l16,8l17,7l16,7l17,7l16,7l17,8l16,7l17,10l16,9l17,8l16,10l17,7l16,9l16,9l17,8l16,8l17,9l16,8l17,8l16,8l17,8l16,7l17,6l16,7l17,8l16,7l17,8l16,7l17,8l16,7l17,9l16,7l17,6l16,6l16,4l17,6l16,7l17,6l16,6l17,6l16,6l17,7l16,7l17,5l16,3l17,5l16,3l17,2l16,3l17,2l16,0l17,1l16,0l16,0l17,1l16,1l17,0l16,0l17,-2l16,-3l17,-2l16,-3l17,-2" stroke-dasharray="10 20" stroke-width="10" fill="none" stroke="#4646b9"></path></g><g clip-path="url(#plot-sample-bounds-scaled-3)"><path stroke-opacity="1.0" d="M758,1703l17,-1l16,-3l17,-1l16,-1l17,-1l16,0l17,0l16,-2l17,-2l16,-3l16,-2l17,-1l16,-1l17,-1l16,-2l17,0l16,0l17,-2l16,0l17,-1l16,-1l17,-2l16,0l17,0l16,1l17,1l16,-1l17,0l16,0l17,0l16,-2l16,0l17,1l16,1l17,-1l16,-2l17,-2l16,-2l17,1l16,1l17,-1l16,0l17,-1l16,0l17,1l16,0l17,0l16,-1l17,0l16,1l16,0l17,-2l16,-2l17,-4l16,-3l17,-3l16,-1l17,0l16,0l17,0l16,-2l17,-3l16,-3l17,-4l16,-3l17,-2l16,-1l17,0l16,-1l17,-2l16,-2l16,-1l17,-4l16,-4l17,-4l16,-3l17,-4l16,-3l17,-3l16,-3l17,-4l16,-4l17,-1l16,-2l17,-2l16,-1l17,-4l16,-5l17,-4l16,-2l17,-4l16,-3l16,-3l17,-3l16,-3l17,-2l16,-3l17,-2l16,-4l17,-3l16,-6l17,-5l16,-5l17,-1l16,-3l17,-4l16,-5l17,-6l16,-5l17,-2l16,-3l16,-1l17,-3l16,-2l17,-1l16,-4l17,-3l16,-2l17,0l16,-3l17,-3l16,-3l17,-2l16,-2l17,-2l16,0l17,-2l16,-2l17,-2l16,0l17,0l16,0l16,-2l17,-3l16,-2l17,-3l16,-2l17,-1l16,-2l17,-3l16,-2l17,-2l16,-2l17,-4l16,-3l17,-1l16,-2l17,-2l16,-3l17,-4l16,-5l17,-3l16,-5l16,-5l17,-3l16,-3l17,-6l16,-6l17,-6l16,-7l17,-10l16,-7l17,-8l16,-6l17,-6l16,-7l17,-7l16,-5l17,-5l16,-5l17,-5l16,-6l16,-7l17,-6l16,-6l17,-6l16,-8l17,-9l16,-7l17,-5l16,-6l17,-4l16,-4l17,-5l16,-6l17,-4l16,-5l17,-4l16,-4l17,-3l16,-4l17,-3l16,-3l16,-1l17,-2l16,-2l17,-1l16,-2l17,-3l16,-2l17,-4l16,-2l17,-1l16,-4l17,-2l16,-2l17,-2l16,-2l17,-1l16,-1l17,-1l16,0l17,-1l16,-1l16,1l17,0l16,0l17,0l16,0l17,-2l16,-3l17,-1l16,-3l17,-3l16,-2l17,-4l16,-1l17,-3l16,-2l17,-1l16,-2l17,-1l16,-2l16,-1l17,0l16,1l17,2l16,3l17,3l16,4l17,3l16,3l17,3l16,3l17,2l16,3l17,2l16,3l17,2l16,2l17,2l16,3l17,5l16,5l16,3l17,5l16,4l17,3l16,5l17,6l16,8l17,8l16,7l17,6l16,6l17,5l16,2l17,5l16,5l17,5l16,3l17,6l16,5l17,4l16,4l16,5l17,4l16,4l17,5l16,5l17,4l16,7l17,6l16,6l17,7l16,8l17,8l16,8l17,8l16,6l17,5l16,5l17,5l16,5l16,7l17,7l16,8l17,8l16,7l17,5l16,5l17,5l16,4l17,5l16,7l17,7l16,4l17,5l16,6l17,7l16,8l17,9l16,7l17,6l16,8l16,6l17,6l16,6l17,6l16,6l17,6l16,8l17,6l16,7l17,5l16,5l17,5l16,6l17,6l16,4l17,7l16,7l17,5l16,8l17,4l16,3l16,5l17,8l16,7l17,5l16,4l17,2l16,3l17,3l16,4l17,5l16,3l17,3l16,3l17,4l16,1l17,2l16,1l17,2l16,-1l16,1l17,2l16,1l17,0l16,-2l17,-1l16,-1l17,-3l16,-2l17,-1" stroke-dasharray="10 20" stroke-width="10" fill="none" stroke="#ba4545"></path></g><line stroke-opacity="0.25098039215686274" y1="2624.5" x1="750" y2="2624.5" x2="6780" stroke-width="10" fill="none" stroke="#000"></line></g><g><rect x="372.6" width="147.8" y="5" fill="#f00" fill-opacity="0.063" stroke="none" height="380"></rect><text text-anchor="middle" x="446.5" y="23.7">warm</text></g><g><rect x="617.3" width="60.7" y="5" fill="#00f" fill-opacity="0.063" stroke="none" height="380"></rect><text text-anchor="middle" x="647.6" y="23.7">cool</text></g><g><rect x="75" width="134.4" y="5" fill="#00f" fill-opacity="0.063" stroke="none" height="380"></rect><text text-anchor="middle" x="142.2" y="23.7">cool</text></g><g transform="scale(0.1)"></g><g stroke-opacity="0.072" stroke-width="1" fill="none" stroke="#000"><line stroke-opacity="0.12" y1="30" x1="126.1" y2="390" x2="126.1"></line><line stroke-opacity="0.12" y1="30" x1="173.9" y2="390" x2="173.9"></line><line stroke-opacity="0.12" y1="30" x1="224.9" y2="390" x2="224.9"></line><line stroke-opacity="0.12" y1="30" x1="274.4" y2="390" x2="274.4"></line><line stroke-opacity="0.12" y1="30" x1="325.4" y2="390" x2="325.4"></line><line stroke-opacity="0.12" y1="30" x1="374.9" y2="390" x2="374.9"></line><line stroke-opacity="0.12" y1="30" x1="425.9" y2="390" x2="425.9"></line><line stroke-opacity="0.12" y1="30" x1="477" y2="390" x2="477"></line><line stroke-opacity="0.12" y1="30" x1="526.4" y2="390" x2="526.4"></line><line stroke-opacity="0.12" y1="30" x1="577.5" y2="390" x2="577.5"></line><line stroke-opacity="0.12" y1="30" x1="626.9" y2="390" x2="626.9"></line><line y1="360" x1="72" y2="360" x2="681"></line><line y1="329.5" x1="72" y2="329.5" x2="681"></line><line y1="299" x1="72" y2="299" x2="681"></line><line y1="268.5" x1="72" y2="268.5" x2="681"></line><line y1="238" x1="72" y2="238" x2="681"></line><line y1="207.5" x1="72" y2="207.5" x2="681"></line><line y1="177" x1="72" y2="177" x2="681"></line><line y1="146.5" x1="72" y2="146.5" x2="681"></line><line y1="116" x1="72" y2="116" x2="681"></line><line y1="85.5" x1="72" y2="85.5" x2="681"></line><line y1="55" x1="72" y2="55" x2="681"></line></g><g><rect x="75" width="51.1" y="30" fill="#fff" fill-opacity="0.004" height="355"></rect><text text-anchor="middle" x="100.5" y="400.7" stroke="none">Jan</text></g><g><rect x="126.1" width="47.8" y="30" fill="#fff" fill-opacity="0.004" height="355"></rect><text text-anchor="middle" x="150" y="400.7" stroke="none">Feb</text></g><g><rect x="173.9" width="51.1" y="30" fill="#fff" fill-opacity="0.004" height="355"></rect><text text-anchor="middle" x="199.4" y="400.7" stroke="none">Mar</text></g><g><rect x="224.9" width="49.4" y="30" fill="#fff" fill-opacity="0.004" height="355"></rect><text text-anchor="middle" x="249.6" y="400.7" stroke="none">Apr</text></g><g><rect x="274.4" width="51.1" y="30" fill="#fff" fill-opacity="0.004" height="355"></rect><text text-anchor="middle" x="299.9" y="400.7" stroke="none">May</text></g><g><rect x="325.4" width="49.4" y="30" fill="#fff" fill-opacity="0.004" height="355"></rect><text text-anchor="middle" x="350.1" y="400.7" stroke="none">Jun</text></g><g><rect x="374.9" width="51.1" y="30" fill="#fff" fill-opacity="0.004" height="355"></rect><text text-anchor="middle" x="400.4" y="400.7" stroke="none">Jul</text></g><g><rect x="425.9" width="51.1" y="30" fill="#fff" fill-opacity="0.004" height="355"></rect><text text-anchor="middle" x="451.5" y="400.7" stroke="none">Aug</text></g><g><rect x="477" width="49.4" y="30" fill="#fff" fill-opacity="0.004" height="355"></rect><text text-anchor="middle" x="501.7" y="400.7" stroke="none">Sep</text></g><g><rect x="526.4" width="51.1" y="30" fill="#fff" fill-opacity="0.004" height="355"></rect><text text-anchor="middle" x="552" y="400.7" stroke="none">Oct</text></g><g><rect x="577.5" width="49.4" y="30" fill="#fff" fill-opacity="0.004" height="355"></rect><text text-anchor="middle" x="602.2" y="400.7" stroke="none">Nov</text></g><g><rect x="626.9" width="51.1" y="30" fill="#fff" fill-opacity="0.004" height="355"></rect><text text-anchor="middle" x="652.5" y="400.7" stroke="none">Dec</text></g><g fill="#666" stroke="none"><text text-anchor="end" x="71" y="365">0°F</text><text x="682" y="365">0°F</text><text text-anchor="end" x="71" y="334.5">10°F</text><text x="682" y="334.5">10°F</text><text text-anchor="end" x="71" y="304">20°F</text><text x="682" y="304">20°F</text><text text-anchor="end" x="71" y="273.5">30°F</text><text x="682" y="273.5">30°F</text><text text-anchor="end" x="71" y="243">40°F</text><text x="682" y="243">40°F</text><text text-anchor="end" x="71" y="212.5">50°F</text><text x="682" y="212.5">50°F</text><text text-anchor="end" x="71" y="182">60°F</text><text x="682" y="182">60°F</text><text text-anchor="end" x="71" y="151.5">70°F</text><text x="682" y="151.5">70°F</text><text text-anchor="end" x="71" y="121">80°F</text><text x="682" y="121">80°F</text><text text-anchor="end" x="71" y="90.5">90°F</text><text x="682" y="90.5">90°F</text><text text-anchor="end" x="71" y="60">100°F</text><text x="682" y="60">100°F</text></g><g font-weight="normal" text-decoration="none" font-size="15" font-family="sans-serif" font-style="normal"><g font-weight="normal" text-decoration="none" font-size="15" font-family="sans-serif" font-style="normal" stroke="none"><g stroke-linejoin="bevel" stroke-width="4" opacity="0.4" fill="#fff" stroke="#fff"><text text-anchor="middle" x="651.7" y="141.8">Dec 24</text><text text-anchor="middle" x="651.7" y="160.4">63°F</text></g><text text-anchor="middle" x="651.7" y="141.8">Dec 24</text><text text-anchor="middle" x="651.7" y="160.4">63°F</text></g></g><circle r="2" cx="665.6" cy="168.6" fill="#000" stroke="none"></circle><g font-weight="normal" text-decoration="none" font-size="15" font-family="sans-serif" font-style="normal"><g font-weight="normal" text-decoration="none" font-size="15" font-family="sans-serif" font-style="normal" stroke="none"><g stroke-linejoin="bevel" stroke-width="4" opacity="0.4" fill="#fff" stroke="#fff"><text text-anchor="middle" x="463" y="87">Aug 23</text><text text-anchor="middle" x="463" y="105.5">81°F</text></g><text text-anchor="middle" x="463" y="87">Aug 23</text><text text-anchor="middle" x="463" y="105.5">81°F</text></g></g><circle r="2" cx="463" cy="112.8" fill="#000" stroke="none"></circle><g font-weight="normal" text-decoration="none" font-size="15" font-family="sans-serif" font-style="normal"><g font-weight="normal" text-decoration="none" font-size="15" font-family="sans-serif" font-style="normal" stroke="none"><g opacity="0.4"><text text-anchor="middle" x="658.2" y="246.9" stroke-linejoin="bevel" stroke-width="4" fill="#fff" stroke="#fff">43°F</text></g><text text-anchor="middle" x="658.2" y="246.9">43°F</text></g></g><circle r="2" cx="665.6" cy="228.6" fill="#000" stroke="none"></circle><g font-weight="normal" text-decoration="none" font-size="15" font-family="sans-serif" font-style="normal"><g font-weight="normal" text-decoration="none" font-size="15" font-family="sans-serif" font-style="normal" stroke="none"><g opacity="0.4"><text text-anchor="middle" x="463" y="194.9" stroke-linejoin="bevel" stroke-width="4" fill="#fff" stroke="#fff">60°F</text></g><text text-anchor="middle" x="463" y="194.9">60°F</text></g></g><circle r="2" cx="463" cy="177.6" fill="#000" stroke="none"></circle><g font-weight="normal" text-decoration="none" font-size="15" font-family="sans-serif" font-style="normal"><g font-weight="normal" text-decoration="none" font-size="15" font-family="sans-serif" font-style="normal" stroke="none"><g stroke-linejoin="bevel" stroke-width="4" opacity="0.4" fill="#fff" stroke="#fff"><text text-anchor="middle" x="372.6" y="98.1">Jun 29</text><text text-anchor="middle" x="372.6" y="116.7">77°F</text></g><text text-anchor="middle" x="372.6" y="98.1">Jun 29</text><text text-anchor="middle" x="372.6" y="116.7">77°F</text></g></g><circle r="2" cx="372.6" cy="124" fill="#000" stroke="none"></circle><g font-weight="normal" text-decoration="none" font-size="15" font-family="sans-serif" font-style="normal"><g font-weight="normal" text-decoration="none" font-size="15" font-family="sans-serif" font-style="normal" stroke="none"><g stroke-linejoin="bevel" stroke-width="4" opacity="0.4" fill="#fff" stroke="#fff"><text text-anchor="middle" x="520.4" y="98.1">Sep 27</text><text text-anchor="middle" x="520.4" y="116.7">77°F</text></g><text text-anchor="middle" x="520.4" y="98.1">Sep 27</text><text text-anchor="middle" x="520.4" y="116.7">77°F</text></g></g><circle r="2" cx="520.4" cy="124" fill="#000" stroke="none"></circle><g font-weight="normal" text-decoration="none" font-size="15" font-family="sans-serif" font-style="normal"><g font-weight="normal" text-decoration="none" font-size="15" font-family="sans-serif" font-style="normal" stroke="none"><g stroke-linejoin="bevel" stroke-width="4" opacity="0.4" fill="#fff" stroke="#fff"><text text-anchor="middle" x="209.4" y="131.6">Mar 22</text><text text-anchor="middle" x="209.4" y="150.2">66°F</text></g><text text-anchor="middle" x="209.4" y="131.6">Mar 22</text><text text-anchor="middle" x="209.4" y="150.2">66°F</text></g></g><circle r="2" cx="209.4" cy="157.5" fill="#000" stroke="none"></circle><g font-weight="normal" text-decoration="none" font-size="15" font-family="sans-serif" font-style="normal"><g font-weight="normal" text-decoration="none" font-size="15" font-family="sans-serif" font-style="normal" stroke="none"><g opacity="0.4"><text text-anchor="middle" x="372.6" y="200.2" stroke-linejoin="bevel" stroke-width="4" fill="#fff" stroke="#fff">58°F</text></g><text text-anchor="middle" x="372.6" y="200.2">58°F</text></g></g><circle r="2" cx="372.6" cy="182.9" fill="#000" stroke="none"></circle><g font-weight="normal" text-decoration="none" font-size="15" font-family="sans-serif" font-style="normal"><g font-weight="normal" text-decoration="none" font-size="15" font-family="sans-serif" font-style="normal" stroke="none"><g opacity="0.4"><text text-anchor="middle" x="520.4" y="204.4" stroke-linejoin="bevel" stroke-width="4" fill="#fff" stroke="#fff">57°F</text></g><text text-anchor="middle" x="520.4" y="204.4">57°F</text></g></g><circle r="2" cx="520.4" cy="187.1" fill="#000" stroke="none"></circle><g font-weight="normal" text-decoration="none" font-size="15" font-family="sans-serif" font-style="normal"><g font-weight="normal" text-decoration="none" font-size="15" font-family="sans-serif" font-style="normal" stroke="none"><g opacity="0.4"><text text-anchor="middle" x="617.3" y="235.8" stroke-linejoin="bevel" stroke-width="4" fill="#fff" stroke="#fff">46°F</text></g><text text-anchor="middle" x="617.3" y="235.8">46°F</text></g></g><circle r="2" cx="617.3" cy="218.5" fill="#000" stroke="none"></circle><g font-weight="normal" text-decoration="none" font-size="15" font-family="sans-serif" font-style="normal"><g font-weight="normal" text-decoration="none" font-size="15" font-family="sans-serif" font-style="normal" stroke="none"><g opacity="0.4"><text text-anchor="middle" x="209.4" y="233.8" stroke-linejoin="bevel" stroke-width="4" fill="#fff" stroke="#fff">47°F</text></g><text text-anchor="middle" x="209.4" y="233.8">47°F</text></g></g><circle r="2" cx="209.4" cy="216.5" fill="#000" stroke="none"></circle></svg>